# xmcd
#
# Track frame offsets:
#	150
#	18202
#	37893
#	55834
#	68196
#	80288
#	113942
#	129234
#	145795
#	164002
#	183187
#	204523
#
# Disc length: 2938 seconds
#
# Revision: 0
# Processed by: cddbd v1.5.1PL0 Copyright (c) Steve Scherf et al.
# Submitted via: dBpowerAMP V4.0
#
DISCID=990b780c
DTITLE=Johnnie Jam and Blue Turkey - This Blues Is Real
DYEAR=1999
DGENRE=blues
TTITLE0=Caught in the Crossfire
TTITLE1=I Have Good Time
TTITLE2=No Place Feels Like Home
TTITLE3=Cherry Bomb Girl
TTITLE4=I Wanna Do What i Heve to Do
TTITLE5=This Blues Is Real
TTITLE6=Pure Style
TTITLE7=Johnnie Jam's Boogie
TTITLE8=You're Alright
TTITLE9=She Burns in my Bones
TTITLE10=Salt the Skies
TTITLE11=My Love Is the Same
EXTD=
EXTT0=
EXTT1=
EXTT2=
EXTT3=
EXTT4=
EXTT5=
EXTT6=
EXTT7=
EXTT8=
EXTT9=
EXTT10=
EXTT11=
PLAYORDER=
